<svg width="677" height="254" viewBox="0 0 677 254" fill="none" xmlns="http://www.w3.org/2000/svg">
<path d="M34.7 230C31.9 230 29.7 232.2 29.7 235V248.3C29.7 251.1 31.9 253.3 34.7 253.3C37.5 253.3 39.7 251.1 39.7 248.3V235C39.7 232.2 37.5 230 34.7 230Z" fill="white"/>
<path d="M58.8 230C56 230 53.8 232.2 53.8 235V248.3C53.8 251.1 56 253.3 58.8 253.3C61.6 253.3 63.8 251.1 63.8 248.3V235C63.8 232.2 61.6 230 58.8 230Z" fill="white"/>
<path d="M83 230C80.2 230 78 232.2 78 235V248.3C78 251.1 80.2 253.3 83 253.3C85.8 253.3 88 251.1 88 248.3V235C88 232.2 85.7 230 83 230Z" fill="white"/>
<path d="M107.1 230C104.3 230 102.1 232.2 102.1 235V248.3C102.1 251.1 104.3 253.3 107.1 253.3C109.9 253.3 112.1 251.1 112.1 248.3V235C112.1 232.2 109.9 230 107.1 230Z" fill="white"/>
<path d="M131.2 230C128.4 230 126.2 232.2 126.2 235V248.3C126.2 251.1 128.4 253.3 131.2 253.3C134 253.3 136.2 251.1 136.2 248.3V235C136.2 232.2 134 230 131.2 230Z" fill="white"/>
<path d="M155.4 230C152.6 230 150.4 232.2 150.4 235V248.3C150.4 251.1 152.6 253.3 155.4 253.3C158.2 253.3 160.4 251.1 160.4 248.3V235C160.4 232.2 158.1 230 155.4 230Z" fill="white"/>
<path d="M41.4 152.6L41.5 152.5C43 150.6 42.9 147.9 41.2 146.1C37.1 141.5 30.1 131.5 30.1 115.8C30.1 104.2 35.1 97 40.4 89.3C43.8 84.3 47.3 79.3 49.2 73.2C55.7 80.5 56.8 92.3 56.9 92.4C57.3 97 63.2 98.7 65.9 94.9C66.5 94 81.1 73.8 87 51.2C90.1 39.4 89.6 23.3 89 13.6C101.5 19.8 125.5 35.5 125.5 64C125.5 66.8 127.7 69 130.5 69C139.7 69 145.6 62.3 149 55.2C152.5 60.6 157 68.7 160.4 78.7C168.3 102 167 124.7 156.5 146.3C155.3 148.7 156.2 151.5 158.5 152.8L158.6 152.9C161.1 154.3 164.2 153.3 165.4 150.7C180 120.7 175.9 93.2 169.7 75.1C162.6 54.6 151.6 41.6 151.1 41.1C148.4 37.9 143.2 39.3 142.4 43.5C142.4 43.6 140.3 53.4 135.2 57.4C130.5 17 86.6 1.60003 84.7 1.00003C81.2 -0.199969 77.7 2.70003 78.1 6.30003C78.1 6.60003 81.3 32.9 77.2 48.8C74.2 60.5 68.4 71.8 63.9 79.4C61.3 72.2 56.5 63.8 47.5 59.8C44.2 58.3 40.5 60.7 40.5 64.4C40.5 71.7 36.7 77.3 32.2 83.7C26.6 91.9 20.2 101.2 20.2 115.9C20.2 134.7 28.7 147.1 34 152.9C35.9 155.2 39.5 155 41.4 152.6Z" fill="white"/>
<path d="M94.6 125.2C92 123.7 88.8 124.8 87.6 127.5C83.2 137.4 83.4 144.8 84.7 149.6C85.6 153.1 90 154.4 92.7 152H92.8C94.2 150.8 94.8 148.8 94.3 147C93.6 144.2 93.4 139.1 96.8 131.5C97.8 129.2 96.9 126.4 94.6 125.2Z" fill="white"/>
<path d="M128.4 135.5C130.4 127.9 131.9 113.8 121.6 100.6C119.8 98.3001 116.3 98.1001 114.2 100.2L114.1 100.3C112.3 102.1 112.2 104.8 113.7 106.8C121.4 116.7 120.1 127.4 118.7 133C118.1 135.3 119.2 137.7 121.4 138.7L121.9 138.9L121.5 138.7C124.3 140.1 127.6 138.5 128.4 135.5Z" fill="white"/>
<path d="M287.7 170.3H176.1H173H14C9.70001 170.3 5.70001 172.4 3.20001 176C0.700014 179.6 0.300014 184.1 1.90001 188.1L8.70001 205.3C12.3 214.4 21 220.3 30.8 220.3H159.4C169.2 220.3 177.9 214.4 181.5 205.3L182.8 202.1C184.7 200.2 191.4 194 198.4 193.6C225.3 191.8 286.5 196.9 287.1 197H287.3C290.9 197.1 294.4 195.8 297.1 193.3C299.7 190.8 301.2 187.3 301.2 183.7C301 176.3 295.1 170.3 287.7 170.3ZM178.9 184.4L172.1 201.6C170 206.9 165 210.3 159.3 210.3H30.8C25.1 210.3 20.1 206.9 18 201.6L11.2 184.4C10.7 183.1 11.2 182 11.5 181.6C11.8 181.2 12.5 180.3 14 180.3H176.2C177.6 180.3 178.4 181.2 178.7 181.6C178.9 182 179.5 183.1 178.9 184.4ZM290 186.1C289.4 186.7 288.6 187 287.7 187C283.6 186.7 224.9 181.8 197.6 183.6C194.5 183.8 191.6 184.7 188.9 185.8C189.3 184 189.2 182.1 188.8 180.3H287.7C289.5 180.3 291 181.8 291 183.6C291 184.6 290.7 185.4 290 186.1Z" fill="white"/>
<path d="M395.126 159.512V94.0579H417.243C422.356 94.0579 426.554 94.9315 429.835 96.6786C433.116 98.4045 435.545 100.78 437.122 103.806C438.699 106.831 439.487 110.272 439.487 114.129C439.487 117.985 438.699 121.405 437.122 124.388C435.545 127.371 433.127 129.715 429.867 131.419C426.607 133.103 422.441 133.944 417.37 133.944H399.473V126.785H417.115C420.609 126.785 423.422 126.274 425.552 125.251C427.704 124.228 429.26 122.779 430.218 120.904C431.199 119.008 431.689 116.75 431.689 114.129C431.689 111.508 431.199 109.218 430.218 107.257C429.238 105.297 427.672 103.784 425.52 102.719C423.368 101.632 420.524 101.089 416.987 101.089H403.052V159.512H395.126ZM425.936 130.109L442.044 159.512H432.839L416.987 130.109H425.936ZM471.727 160.535C466.997 160.535 462.916 159.491 459.486 157.403C456.077 155.294 453.446 152.353 451.592 148.582C449.759 144.789 448.843 140.379 448.843 135.351C448.843 130.322 449.759 125.89 451.592 122.055C453.446 118.199 456.024 115.194 459.326 113.042C462.65 110.869 466.528 109.782 470.96 109.782C473.517 109.782 476.041 110.208 478.534 111.061C481.027 111.913 483.296 113.298 485.342 115.216C487.387 117.112 489.017 119.626 490.232 122.758C491.446 125.89 492.054 129.747 492.054 134.328V137.524H454.213V131.004H484.383C484.383 128.234 483.829 125.762 482.721 123.589C481.634 121.416 480.079 119.701 478.055 118.444C476.052 117.186 473.687 116.558 470.96 116.558C467.956 116.558 465.356 117.304 463.161 118.795C460.988 120.265 459.316 122.183 458.144 124.548C456.972 126.913 456.386 129.449 456.386 132.154V136.501C456.386 140.208 457.025 143.351 458.304 145.929C459.603 148.486 461.404 150.436 463.705 151.778C466.006 153.099 468.68 153.76 471.727 153.76C473.708 153.76 475.498 153.483 477.096 152.929C478.715 152.353 480.111 151.501 481.283 150.372C482.455 149.221 483.36 147.794 484 146.089L491.286 148.135C490.519 150.606 489.23 152.779 487.419 154.654C485.608 156.508 483.371 157.957 480.708 159.001C478.044 160.024 475.051 160.535 471.727 160.535ZM523.47 160.535C518.868 160.535 514.905 159.449 511.581 157.275C508.257 155.102 505.701 152.108 503.911 148.294C502.121 144.48 501.226 140.123 501.226 135.223C501.226 130.237 502.142 125.837 503.975 122.023C505.828 118.188 508.407 115.194 511.709 113.042C515.033 110.869 518.911 109.782 523.343 109.782C526.794 109.782 529.905 110.422 532.675 111.7C535.445 112.978 537.714 114.768 539.483 117.069C541.251 119.37 542.348 122.055 542.774 125.123H535.232C534.657 122.886 533.378 120.904 531.397 119.179C529.436 117.431 526.794 116.558 523.47 116.558C520.53 116.558 517.952 117.325 515.736 118.859C513.541 120.372 511.826 122.513 510.59 125.283C509.376 128.032 508.769 131.26 508.769 134.967C508.769 138.76 509.365 142.062 510.558 144.875C511.773 147.687 513.478 149.871 515.672 151.427C517.888 152.982 520.487 153.76 523.47 153.76C525.431 153.76 527.21 153.419 528.808 152.737C530.406 152.055 531.759 151.075 532.867 149.797C533.975 148.518 534.763 146.984 535.232 145.194H542.774C542.348 148.092 541.294 150.702 539.61 153.025C537.948 155.326 535.743 157.158 532.995 158.522C530.267 159.864 527.093 160.535 523.47 160.535ZM553.801 159.512V110.422H561.343V159.512H553.801ZM557.636 102.24C556.166 102.24 554.898 101.739 553.833 100.738C552.789 99.7362 552.267 98.5323 552.267 97.1261C552.267 95.7198 552.789 94.516 553.833 93.5146C554.898 92.5132 556.166 92.0125 557.636 92.0125C559.106 92.0125 560.363 92.5132 561.407 93.5146C562.473 94.516 563.005 95.7198 563.005 97.1261C563.005 98.5323 562.473 99.7362 561.407 100.738C560.363 101.739 559.106 102.24 557.636 102.24ZM575.158 177.922V110.422H582.445V118.22H583.34C583.894 117.368 584.661 116.281 585.641 114.96C586.642 113.618 588.07 112.424 589.924 111.38C591.799 110.315 594.334 109.782 597.53 109.782C601.664 109.782 605.307 110.816 608.461 112.882C611.614 114.949 614.075 117.879 615.843 121.672C617.612 125.464 618.496 129.939 618.496 135.095C618.496 140.294 617.612 144.8 615.843 148.614C614.075 152.407 611.625 155.347 608.493 157.435C605.361 159.502 601.749 160.535 597.658 160.535C594.505 160.535 591.98 160.013 590.084 158.969C588.187 157.904 586.728 156.7 585.705 155.358C584.682 153.994 583.894 152.865 583.34 151.97H582.701V177.922H575.158ZM582.573 134.967C582.573 138.674 583.116 141.945 584.203 144.779C585.29 147.591 586.877 149.797 588.965 151.395C591.053 152.971 593.61 153.76 596.635 153.76C599.789 153.76 602.42 152.929 604.53 151.267C606.66 149.583 608.258 147.325 609.324 144.491C610.41 141.636 610.954 138.461 610.954 134.967C610.954 131.515 610.421 128.404 609.356 125.635C608.312 122.843 606.724 120.638 604.593 119.019C602.484 117.378 599.831 116.558 596.635 116.558C593.567 116.558 590.989 117.336 588.901 118.891C586.813 120.425 585.236 122.577 584.171 125.347C583.106 128.096 582.573 131.302 582.573 134.967ZM650.584 160.535C645.854 160.535 641.774 159.491 638.343 157.403C634.934 155.294 632.303 152.353 630.449 148.582C628.617 144.789 627.701 140.379 627.701 135.351C627.701 130.322 628.617 125.89 630.449 122.055C632.303 118.199 634.881 115.194 638.184 113.042C641.508 110.869 645.385 109.782 649.817 109.782C652.374 109.782 654.899 110.208 657.392 111.061C659.885 111.913 662.154 113.298 664.199 115.216C666.245 117.112 667.875 119.626 669.089 122.758C670.304 125.89 670.911 129.747 670.911 134.328V137.524H633.07V131.004H663.24C663.24 128.234 662.687 125.762 661.579 123.589C660.492 121.416 658.937 119.701 656.912 118.444C654.91 117.186 652.544 116.558 649.817 116.558C646.813 116.558 644.214 117.304 642.019 118.795C639.846 120.265 638.173 122.183 637.001 124.548C635.829 126.913 635.243 129.449 635.243 132.154V136.501C635.243 140.208 635.883 143.351 637.161 145.929C638.461 148.486 640.261 150.436 642.562 151.778C644.863 153.099 647.537 153.76 650.584 153.76C652.566 153.76 654.356 153.483 655.954 152.929C657.573 152.353 658.968 151.501 660.14 150.372C661.312 149.221 662.218 147.794 662.857 146.089L670.144 148.135C669.377 150.606 668.088 152.779 666.277 154.654C664.466 156.508 662.228 157.957 659.565 159.001C656.902 160.024 653.908 160.535 650.584 160.535Z" fill="white"/>
</svg>
