<svg width="44" height="48" viewBox="0 0 44 48" fill="none" xmlns="http://www.w3.org/2000/svg">
<path d="M34 48H10C9.478 48 9.043 47.598 9.003 47.077L7.07 21.946C3.095 21.484 0 18.097 0 14C0 9.581 3.678 5.849 8.032 5.849C8.942 5.849 9.835 6.026 10.668 6.369C12.072 2.509 16.439 0 22 0C27.224 0 30.878 2.112 33.14 6.45C34.027 6.054 34.988 5.848 35.968 5.848C40.322 5.849 44 9.581 44 14C44 18.097 40.905 21.484 36.93 21.946L34.997 47.077C34.957 47.598 34.522 48 34 48ZM10.926 46H33.073L35.002 20.923C35.043 20.402 35.478 20 36 20C39.309 20 42 17.309 42 14C42 10.375 38.821 7.849 35.968 7.849C34.986 7.849 34.069 8.123 33.244 8.666C32.999 8.827 32.693 8.873 32.412 8.789C32.13 8.706 31.899 8.504 31.78 8.234C29.898 3.981 26.791 2 22 2C16.843 2 12.941 4.415 12.29 8.009C12.23 8.339 12.009 8.617 11.7 8.749C11.392 8.883 11.037 8.851 10.757 8.666C9.932 8.123 9.015 7.849 8.033 7.849C5.179 7.849 2 10.375 2 14C2 17.309 4.691 20 8 20C8.522 20 8.957 20.402 8.997 20.923L10.926 46Z" fill="white"/>
<path d="M34.625 40H9.375C8.823 40 8.375 39.553 8.375 39C8.375 38.447 8.823 38 9.375 38H34.625C35.177 38 35.625 38.447 35.625 39C35.625 39.553 35.177 40 34.625 40Z" fill="white"/>
<path d="M17 40C16.448 40 16 39.553 16 39V31C16 30.447 16.448 30 17 30C17.552 30 18 30.447 18 31V39C18 39.553 17.552 40 17 40Z" fill="white"/>
<path d="M22 40C21.448 40 21 39.553 21 39V29C21 28.447 21.448 28 22 28C22.552 28 23 28.447 23 29V39C23 39.553 22.552 40 22 40Z" fill="white"/>
<path d="M27 40C26.448 40 26 39.553 26 39V31C26 30.447 26.448 30 27 30C27.552 30 28 30.447 28 31V39C28 39.553 27.552 40 27 40Z" fill="white"/>
</svg>
