<svg width="54" height="54" viewBox="0 0 54 54" fill="none" xmlns="http://www.w3.org/2000/svg">
<path d="M47.1131 19.3228C47.0262 19.2364 46.9573 19.1335 46.9104 19.0202C46.8635 18.9069 46.8396 18.7854 46.8401 18.6628V10.0938C46.8393 9.31592 46.5299 8.57011 45.9799 8.02005C45.4298 7.46999 44.684 7.16061 43.9061 7.15982H35.3371C35.2144 7.16008 35.0928 7.13609 34.9794 7.08924C34.8659 7.0424 34.7629 6.9736 34.6761 6.88682L29.0761 1.28682C28.5252 0.737903 27.7793 0.429688 27.0016 0.429688C26.2239 0.429688 25.478 0.737903 24.9271 1.28682L19.3271 6.88682C19.2406 6.97375 19.1378 7.04265 19.0245 7.08951C18.9112 7.13638 18.7897 7.16028 18.6671 7.15982H10.0941C9.31619 7.16061 8.57038 7.46999 8.02032 8.02005C7.47026 8.57011 7.16088 9.31592 7.16009 10.0938V18.6628C7.15936 18.9101 7.06129 19.1472 6.88709 19.3228L1.28709 24.9228C1.01472 25.1952 0.798662 25.5185 0.651255 25.8744C0.503848 26.2302 0.427979 26.6116 0.427979 26.9968C0.427979 27.382 0.503848 27.7634 0.651255 28.1193C0.798662 28.4751 1.01472 28.7985 1.28709 29.0708L6.88709 34.6708C7.06157 34.8462 7.15969 35.0834 7.16009 35.3308V43.8998C7.16088 44.6777 7.47026 45.4235 8.02032 45.9736C8.57038 46.5237 9.31619 46.833 10.0941 46.8338H18.6631C18.7857 46.8334 18.9072 46.8573 19.0205 46.9041C19.1338 46.951 19.2366 47.0199 19.3231 47.1068L24.9231 52.7068C25.4737 53.2562 26.2198 53.5648 26.9976 53.5648C27.7754 53.5648 28.5215 53.2562 29.0721 52.7068L34.6721 47.1068C34.7589 47.02 34.8619 46.9512 34.9754 46.9044C35.0888 46.8575 35.2104 46.8336 35.3331 46.8338H43.9021C44.68 46.833 45.4258 46.5237 45.9759 45.9736C46.5259 45.4235 46.8353 44.6777 46.8361 43.8998V35.3368C46.837 35.0895 46.9351 34.8525 47.1091 34.6768L52.7091 29.0768C52.9817 28.8045 53.198 28.4811 53.3456 28.1252C53.4932 27.7692 53.5691 27.3877 53.5691 27.0023C53.5691 26.617 53.4932 26.2354 53.3456 25.8795C53.198 25.5235 52.9817 25.2001 52.7091 24.9278L47.1131 19.3228ZM51.3001 27.6598L45.7001 33.2598C45.1518 33.8111 44.8431 34.5563 44.8411 35.3338V43.9028C44.8408 44.1505 44.7423 44.3879 44.5672 44.563C44.3921 44.7381 44.1547 44.8366 43.9071 44.8368H35.3371C34.9516 44.8358 34.5698 44.9112 34.2136 45.0586C33.8575 45.2061 33.534 45.4226 33.2621 45.6958L27.6621 51.2958C27.5754 51.3825 27.4726 51.4513 27.3593 51.4983C27.2461 51.5452 27.1247 51.5694 27.0021 51.5694C26.8795 51.5694 26.7581 51.5452 26.6449 51.4983C26.5316 51.4513 26.4287 51.3825 26.3421 51.2958L20.7421 45.6958C20.4704 45.4226 20.1472 45.206 19.7912 45.0585C19.4351 44.9111 19.0534 44.8357 18.6681 44.8368H10.0941C9.84646 44.8366 9.60905 44.7381 9.43394 44.563C9.25884 44.3879 9.16035 44.1505 9.16009 43.9028V35.3368C9.15794 34.5594 8.84928 33.8141 8.30109 33.2628L2.70109 27.6628C2.5262 27.4877 2.42797 27.2503 2.42797 27.0028C2.42797 26.7553 2.5262 26.5179 2.70109 26.3428L8.30109 20.7428C8.5742 20.471 8.79073 20.1478 8.93817 19.7918C9.08561 19.4358 9.16104 19.0541 9.16009 18.6688V10.0938C9.16035 9.84619 9.25884 9.60878 9.43394 9.43368C9.60905 9.25857 9.84646 9.16009 10.0941 9.15982H18.6631C19.0484 9.16093 19.4302 9.08558 19.7862 8.93813C20.1422 8.79068 20.4654 8.57406 20.7371 8.30082L26.3371 2.70082C26.5122 2.52593 26.7496 2.4277 26.9971 2.4277C27.2446 2.4277 27.482 2.52593 27.6571 2.70082L33.2571 8.30082C33.529 8.574 33.8525 8.79057 34.2086 8.93801C34.5648 9.08545 34.9466 9.16084 35.3321 9.15982H43.9011C44.1487 9.16009 44.3861 9.25857 44.5612 9.43368C44.7363 9.60878 44.8348 9.84619 44.8351 10.0938V18.6628C44.834 19.0482 44.9093 19.4299 45.0568 19.7859C45.2042 20.1419 45.4209 20.4651 45.6941 20.7368L51.2941 26.3368C51.3809 26.4234 51.4498 26.5263 51.4968 26.6395C51.5438 26.7528 51.568 26.8742 51.568 26.9968C51.568 27.1194 51.5438 27.2409 51.4968 27.3541C51.4498 27.4674 51.3809 27.5702 51.2941 27.6568L51.3001 27.6598Z" fill="white"/>
<path d="M42.0211 21.1507C41.9417 21.071 41.8971 20.9632 41.8971 20.8507V14.5297C41.8974 13.8857 41.6419 13.2679 41.1868 12.8122C40.7316 12.3565 40.1142 12.1002 39.4701 12.0997H33.1501C33.0375 12.0993 32.9297 12.0544 32.8501 11.9747L28.7171 7.8417C28.2618 7.38744 27.6448 7.13232 27.0016 7.13232C26.3584 7.13232 25.7415 7.38744 25.2861 7.8417L21.1001 12.0227C21.0291 12.0743 20.9439 12.1026 20.8561 12.1037H14.5301C14.2113 12.1034 13.8955 12.166 13.6008 12.2878C13.3062 12.4095 13.0383 12.5882 12.8127 12.8134C12.587 13.0387 12.408 13.3062 12.2857 13.6007C12.1635 13.8952 12.1004 14.2109 12.1001 14.5297V20.8507C12.093 20.9618 12.049 21.0674 11.9751 21.1507L7.84214 25.2827C7.61672 25.5079 7.43791 25.7753 7.3159 26.0697C7.1939 26.3641 7.1311 26.6796 7.1311 26.9982C7.1311 27.3168 7.1939 27.6324 7.3159 27.9267C7.43791 28.2211 7.61672 28.4885 7.84214 28.7137L11.9751 32.8467C12.0548 32.9263 12.0998 33.0341 12.1001 33.1467V39.4667C12.0996 39.7861 12.1621 40.1025 12.284 40.3977C12.4059 40.6929 12.5848 40.9612 12.8105 41.1872C13.0362 41.4132 13.3043 41.5925 13.5994 41.7147C13.8944 41.837 14.2107 41.8998 14.5301 41.8997H20.8511C20.9637 41.9002 21.0715 41.9451 21.1511 42.0247L25.2831 46.1557C25.7382 46.6105 26.3553 46.8659 26.9986 46.8659C27.642 46.8659 28.259 46.6105 28.7141 46.1557L32.8471 42.0247C32.8864 41.9851 32.9331 41.9536 32.9846 41.9322C33.0361 41.9107 33.0914 41.8997 33.1471 41.8997H39.4671C40.111 41.8968 40.7277 41.64 41.1833 41.185C41.6388 40.73 41.8965 40.1136 41.9001 39.4697V33.1497C41.9 33.094 41.9109 33.0388 41.9322 32.9873C41.9535 32.9359 41.9847 32.8891 42.0241 32.8497L46.1561 28.7177C46.3816 28.4924 46.5604 28.2249 46.6824 27.9305C46.8045 27.636 46.8673 27.3204 46.8673 27.0017C46.8673 26.683 46.8045 26.3674 46.6824 26.0729C46.5604 25.7785 46.3816 25.511 46.1561 25.2857L42.0211 21.1507ZM44.7391 27.3007L40.6071 31.4337C40.3812 31.6586 40.2021 31.926 40.0802 32.2206C39.9583 32.5151 39.8961 32.8309 39.8971 33.1497V39.4697C39.8962 39.5325 39.8813 39.5942 39.8534 39.6504C39.8256 39.7067 39.7855 39.756 39.7361 39.7947C39.6623 39.8588 39.5679 39.8942 39.4701 39.8947H33.1501C32.8313 39.8937 32.5154 39.956 32.2208 40.0781C31.9262 40.2001 31.6588 40.3795 31.4341 40.6057L27.3001 44.7387C27.2201 44.8174 27.1124 44.8614 27.0001 44.8614C26.8879 44.8614 26.7802 44.8174 26.7001 44.7387L22.5681 40.6077C22.3436 40.3815 22.0764 40.2022 21.782 40.0801C21.4876 39.9581 21.1718 39.8957 20.8531 39.8967H14.5301C14.4171 39.8964 14.3087 39.8513 14.2288 39.7713C14.149 39.6912 14.1041 39.5828 14.1041 39.4697V33.1497C14.1049 32.8309 14.0425 32.5151 13.9204 32.2205C13.7984 31.926 13.6192 31.6585 13.3931 31.4337L9.26014 27.2997C9.18099 27.2199 9.13659 27.1121 9.13659 26.9997C9.13659 26.8873 9.18099 26.7795 9.26014 26.6997L13.3931 22.5677C13.4576 22.501 13.5178 22.4302 13.5731 22.3557C13.9132 21.9293 14.1002 21.4011 14.1041 20.8557V14.5297C14.1041 14.4167 14.149 14.3084 14.2289 14.2285C14.3088 14.1486 14.4172 14.1037 14.5301 14.1037H20.8511C21.353 14.1042 21.8424 13.9479 22.2511 13.6567C22.3651 13.5783 22.4718 13.49 22.5701 13.3927L26.7001 9.2597C26.7801 9.1808 26.8878 9.13656 27.0001 9.13656C27.1124 9.13656 27.2202 9.1808 27.3001 9.2597L31.4331 13.3927C31.658 13.6187 31.9254 13.798 32.22 13.92C32.5145 14.0421 32.8303 14.1045 33.1491 14.1037H39.4691C39.5822 14.1037 39.6907 14.1486 39.7707 14.2284C39.8508 14.3083 39.8959 14.4166 39.8961 14.5297V20.8507C39.8976 21.4936 40.1528 22.1099 40.6061 22.5657L44.7391 26.6997C44.8183 26.7795 44.8627 26.8873 44.8627 26.9997C44.8627 27.1121 44.8183 27.2209 44.7391 27.3007Z" fill="white"/>
<path d="M22.6902 21.5167C22.6621 21.2566 22.5332 21.0177 22.331 20.8516C22.1289 20.6854 21.8696 20.605 21.609 20.6278C21.3483 20.6506 21.1069 20.7746 20.9366 20.9734C20.7663 21.1721 20.6807 21.4296 20.6982 21.6907C20.9352 24.4347 20.6442 28.6437 19.2532 29.4067C18.963 29.6089 18.6224 29.7267 18.2693 29.7468C17.9162 29.7669 17.5645 29.6887 17.2532 29.5207C16.8602 29.1957 16.8042 28.4837 17.0992 27.5657C17.1491 27.4386 17.1724 27.3026 17.1677 27.1661C17.163 27.0297 17.1304 26.8956 17.0719 26.7722C17.0134 26.6488 16.9302 26.5387 16.8275 26.4487C16.7249 26.3586 16.6048 26.2906 16.4748 26.2487C16.3449 26.2069 16.2077 26.1921 16.0718 26.2052C15.9358 26.2184 15.8041 26.2593 15.6845 26.3253C15.565 26.3914 15.4603 26.4812 15.3768 26.5893C15.2934 26.6974 15.2329 26.8214 15.1992 26.9537C14.4052 29.4227 15.4842 30.6537 15.9842 31.0627C16.5637 31.5243 17.2865 31.7685 18.0272 31.7527C18.7951 31.7418 19.5478 31.5379 20.2162 31.1597C23.2282 29.5057 22.8052 22.8367 22.6902 21.5167Z" fill="white"/>
<path d="M38.7811 26.8799C38.2374 26.7261 37.7218 26.4861 37.2541 26.1689C36.7111 25.7549 34.8031 24.4359 33.0401 24.8199C32.6407 24.9091 32.2663 25.0865 31.9443 25.3392C31.6223 25.5918 31.3609 25.9132 31.1791 26.2799C31.1175 26.3958 31.0793 26.5228 31.0667 26.6535C31.0541 26.7843 31.0674 26.9162 31.1058 27.0418C31.1833 27.2954 31.3584 27.5079 31.5926 27.6324C31.8268 27.7569 32.1009 27.7833 32.3545 27.7057C32.6082 27.6282 32.8206 27.4531 32.9451 27.2189C32.99 27.1081 33.061 27.0097 33.152 26.9322C33.2431 26.8548 33.3515 26.8004 33.4681 26.7739C34.4149 26.7898 35.3258 27.1385 36.0411 27.7589C36.3031 27.9544 36.5826 28.1251 36.8761 28.2689C35.4634 29.1206 33.8807 29.6514 32.2401 29.8239C31.6452 29.9491 31.0249 29.8383 30.5101 29.5149C30.1271 29.1249 30.2271 28.1069 30.3101 27.2889C30.3301 27.0889 30.3491 26.8829 30.3631 26.6889C30.6218 24.9947 31.0232 23.3254 31.5631 21.6989C31.6317 21.4507 31.6019 21.1857 31.48 20.959C31.358 20.7323 31.1533 20.5613 30.9085 20.4817C30.6637 20.402 30.3976 20.4199 30.1657 20.5315C29.9337 20.6431 29.7537 20.8399 29.6631 21.0809C29.6301 21.1809 29.0811 22.8809 28.7061 24.5459C27.6872 23.2554 26.3854 22.2163 24.9011 21.5089C24.6611 21.4063 24.3905 21.4016 24.1471 21.4959C23.9036 21.5901 23.7067 21.7758 23.5984 22.0133C23.49 22.2508 23.4788 22.5212 23.5671 22.7668C23.6555 23.0125 23.8363 23.2138 24.0711 23.3279C24.1111 23.3459 28.0111 25.1999 27.6941 27.7369C27.5931 28.2255 27.3814 28.6845 27.0752 29.0786C26.7691 29.4726 26.3766 29.7912 25.9281 30.0099C25.6941 30.0969 24.9861 30.3589 23.9141 29.3909C23.8174 29.299 23.7033 29.2274 23.5785 29.1803C23.4537 29.1332 23.3207 29.1115 23.1874 29.1166C23.0541 29.1216 22.9232 29.1533 22.8023 29.2097C22.6814 29.2662 22.5731 29.3462 22.4836 29.4452C22.3941 29.5441 22.3254 29.6599 22.2814 29.7859C22.2373 29.9118 22.219 30.0452 22.2273 30.1784C22.2356 30.3115 22.2705 30.4416 22.3299 30.5611C22.3893 30.6805 22.472 30.7869 22.5731 30.8739C23.3286 31.6283 24.343 32.0667 25.4101 32.0999C25.8197 32.0994 26.226 32.0262 26.6101 31.8839C27.422 31.5558 28.1258 31.0071 28.6421 30.2999C28.7592 30.5256 28.908 30.7334 29.0841 30.9169C29.4442 31.2466 29.8681 31.4991 30.3295 31.6587C30.791 31.8183 31.2802 31.8817 31.7671 31.8449C31.9671 31.8449 32.1791 31.8359 32.3991 31.8189C34.8463 31.5532 37.1784 30.6398 39.1551 29.1729C39.35 29.0314 39.5017 28.8385 39.5933 28.6158C39.685 28.3931 39.713 28.1493 39.6742 27.9117C39.6354 27.674 39.5314 27.4518 39.3737 27.2698C39.216 27.0877 39.0109 26.9531 38.7811 26.8809V26.8799Z" fill="white"/>
</svg>
